name Walk1.mot
datacolumns 19
datarows 25
range 2.56000000 2.68000000
endheader

                time	   L_ground_force_vx	   L_ground_force_vy	   L_ground_force_vz	   L_ground_force_px	   L_ground_force_py	   L_ground_force_pz	   R_ground_force_vx	   R_ground_force_vy	   R_ground_force_vz	   R_ground_force_px	   R_ground_force_py	   R_ground_force_pz	   L_ground_torque_x	   L_ground_torque_y	   L_ground_torque_z	   R_ground_torque_x	   R_ground_torque_y	   R_ground_torque_z	
          2.56000000	         -0.00000000	         -0.00000000	         -0.00000000	          0.00000000	          0.00000000	          0.00000000	         -0.05227163	         -0.32440525	         -0.02056171	         -0.00507599	          0.00000000	         -0.00208318	          0.00000000	         -0.00000000	          0.00000000	          0.00000000	          0.00215433	          0.00000000	
          2.56500000	         -0.00000000	         -0.00000000	         -0.00000000	          0.00000000	          0.00000000	          0.00000000	          0.00343712	          0.01489378	         -0.00099928	         -0.00059787	          0.00000000	         -0.00023672	          0.00000000	         -0.00000000	          0.00000000	          0.00000000	          0.00003532	          0.00000000	
          2.57000000	         -0.00000000	         -0.00000000	         -0.00000000	          0.00000000	          0.00000000	          0.00000000	          0.00664000	          0.03939603	          0.00194982	          0.00038246	          0.00000000	          0.00015939	          0.00000000	         -0.00000000	          0.00000000	          0.00000000	         -0.00022383	          0.00000000	
          2.57500000	          0.00000000	          0.00000000	          0.00000000	         -0.00000000	          0.00000000	         -0.00000000	          0.00149678	          0.00947735	          0.00065748	          0.00017257	          0.00000000	          0.00007057	          0.00000000	          0.00000000	          0.00000000	          0.00000000	         -0.00006686	          0.00000000	
          2.58000000	          0.00000000	          0.00000000	          0.00000000	         -0.00000000	          0.00000000	         -0.00000000	         -0.00029905	         -0.00160625	         -0.00002644	          0.00000709	          0.00000000	          0.00000258	          0.00000000	          0.00000000	          0.00000000	          0.00000000	          0.00000546	          0.00000000	
          2.58500000	          0.00000000	          0.00000000	         -0.00000000	         -0.00000000	          0.00000000	         -0.00000000	         -0.00024663	         -0.00148072	         -0.00007879	         -0.00001673	          0.00000000	         -0.00000693	          0.00000000	          0.00000000	          0.00000000	          0.00000000	          0.00000879	          0.00000000	
          2.59000000	         -0.00000000	         -0.00000000	         -0.00000000	          0.00000000	          0.00000000	          0.00000000	         -0.00003700	         -0.00024266	         -0.00001932	         -0.00000548	          0.00000000	         -0.00000223	          0.00000000	         -0.00000000	          0.00000000	          0.00000000	          0.00000188	          0.00000000	
          2.59500000	         -0.00000000	         -0.00000000	         -0.00000000	          0.00000000	          0.00000000	          0.00000000	          0.00001634	          0.00009235	          0.00000311	          0.00000027	          0.00000000	          0.00000012	          0.00000000	         -0.00000000	          0.00000000	          0.00000000	         -0.00000042	          0.00000000	
          2.60000000	          0.00000000	         -0.00000000	          0.00000000	          0.00000000	          0.00000000	          0.00000000	          0.00000862	          0.00005234	          0.00000297	          0.00000067	          0.00000000	          0.00000028	          0.00000000	          0.00000000	          0.00000000	          0.00000000	         -0.00000032	          0.00000000	
          2.60500000	          0.00000000	          0.00000000	          0.00000000	         -0.00000000	          0.00000000	         -0.00000000	          0.00000065	          0.00000472	          0.00000050	          0.00000016	          0.00000000	          0.00000006	          0.00000000	          0.00000000	          0.00000000	          0.00000000	         -0.00000005	          0.00000000	
          2.61000000	          0.00000000	          0.00000000	          0.00000000	         -0.00000000	          0.00000000	         -0.00000000	         -0.00000075	         -0.00000435	         -0.00000018	         -0.00000003	          0.00000000	         -0.00000001	          0.00000000	          0.00000000	          0.00000000	          0.00000000	          0.00000002	          0.00000000	
          2.61500000	         -0.00000000	         -0.00000000	         -0.00000000	         -0.00000000	          0.00000000	         -0.00000000	         -0.00000028	         -0.00000174	         -0.00000011	         -0.00000003	          0.00000000	         -0.00000001	          0.00000000	         -0.00000000	          0.00000000	          0.00000000	          0.00000001	          0.00000000	
          2.62000000	         -0.00000000	         -0.00000000	         -0.00000000	          0.00000000	          0.00000000	          0.00000000	          0.00000000	         -0.00000002	         -0.00000001	         -0.00000000	          0.00000000	         -0.00000000	          0.00000000	         -0.00000000	          0.00000000	          0.00000000	          0.00000000	          0.00000000	
          2.62500000	         -0.00000000	         -0.00000000	         -0.00000000	          0.00000000	          0.00000000	          0.00000000	          0.00000003	          0.00000018	          0.00000001	          0.00000000	          0.00000000	          0.00000000	          0.00000000	         -0.00000000	          0.00000000	          0.00000000	         -0.00000000	          0.00000000	
          2.63000000	          0.00000000	          0.00000000	          0.00000000	         -0.00000000	          0.00000000	         -0.00000000	          0.00000001	          0.00000005	          0.00000000	          0.00000000	          0.00000000	          0.00000000	          0.00000000	          0.00000000	          0.00000000	          0.00000000	         -0.00000000	          0.00000000	
          2.63500000	          0.00000000	          0.00000000	          0.00000000	         -0.00000000	          0.00000000	         -0.00000000	         -0.00000000	         -0.00000000	          0.00000000	          0.00000000	          0.00000000	          0.00000000	          0.00000000	          0.00000000	          0.00000000	          0.00000000	          0.00000000	          0.00000000	
          2.64000000	          0.00000000	          0.00000000	         -0.00000000	         -0.00000000	          0.00000000	         -0.00000000	         -0.00000000	         -0.00000001	         -0.00000000	         -0.00000000	          0.00000000	         -0.00000000	          0.00000000	          0.00000000	          0.00000000	          0.00000000	          0.00000000	          0.00000000	
          2.64500000	         -0.00000000	         -0.00000000	         -0.00000000	          0.00000000	          0.00000000	          0.00000000	         -0.00000000	         -0.00000000	         -0.00000000	         -0.00000000	          0.00000000	         -0.00000000	          0.00000000	         -0.00000000	          0.00000000	          0.00000000	          0.00000000	          0.00000000	
          2.65000000	         -0.00000000	         -0.00000000	         -0.00000000	          0.00000000	          0.00000000	          0.00000000	          0.00000000	          0.00000000	          0.00000000	         -0.00000000	          0.00000000	         -0.00000000	          0.00000000	         -0.00000000	          0.00000000	          0.00000000	         -0.00000000	          0.00000000	
          2.65500000	          0.00000000	         -0.00000000	          0.00000000	          0.00000000	          0.00000000	          0.00000000	          0.00000000	          0.00000000	          0.00000000	          0.00000000	          0.00000000	          0.00000000	          0.00000000	         -0.00000000	          0.00000000	          0.00000000	         -0.00000000	          0.00000000	
          2.66000000	          0.00000000	          0.00000000	          0.00000000	         -0.00000000	          0.00000000	         -0.00000000	          0.00000000	          0.00000000	          0.00000000	          0.00000000	          0.00000000	          0.00000000	          0.00000000	          0.00000000	          0.00000000	          0.00000000	         -0.00000000	          0.00000000	
          2.66500000	          0.00000000	          0.00000000	          0.00000000	         -0.00000000	          0.00000000	         -0.00000000	         -0.00000000	         -0.00000000	         -0.00000000	         -0.00000000	          0.00000000	         -0.00000000	          0.00000000	          0.00000000	          0.00000000	          0.00000000	          0.00000000	          0.00000000	
          2.67000000	         -0.00000000	         -0.00000000	         -0.00000000	         -0.00000000	          0.00000000	         -0.00000000	         -0.00000000	         -0.00000000	         -0.00000000	         -0.00000000	          0.00000000	         -0.00000000	          0.00000000	         -0.00000000	          0.00000000	          0.00000000	          0.00000000	          0.00000000	
          2.67500000	         -0.00000000	         -0.00000000	         -0.00000000	          0.00000000	          0.00000000	          0.00000000	         -0.00000000	         -0.00000000	         -0.00000000	         -0.00000000	          0.00000000	         -0.00000000	          0.00000000	         -0.00000000	          0.00000000	          0.00000000	          0.00000000	          0.00000000	
          2.68000000	         -0.00000000	         -0.00000000	         -0.00000000	          0.00000000	          0.00000000	          0.00000000	          0.00000000	          0.00000000	          0.00000000	          0.00000000	          0.00000000	          0.00000000	          0.00000000	         -0.00000000	          0.00000000	          0.00000000	         -0.00000000	          0.00000000	
